<mxfile host="65bd71144e">
    <diagram id="gI5yYhP_lzlP08olRBEv" name="Page-1">
        <mxGraphModel dx="1118" dy="860" grid="1" gridSize="10" guides="1" tooltips="1" connect="1" arrows="1" fold="1" page="1" pageScale="1" pageWidth="850" pageHeight="1100" math="0" shadow="0">
            <root>
                <mxCell id="0"/>
                <mxCell id="1" parent="0"/>
                <mxCell id="2" value="" style="whiteSpace=wrap;html=1;" parent="1" vertex="1">
                    <mxGeometry width="850" height="90" as="geometry"/>
                </mxCell>
                <mxCell id="3" value="" style="whiteSpace=wrap;html=1;" parent="1" vertex="1">
                    <mxGeometry x="30" y="15" width="200" height="60" as="geometry"/>
                </mxCell>
                <mxCell id="4" value="" style="whiteSpace=wrap;html=1;" parent="1" vertex="1">
                    <mxGeometry x="490" y="22.5" width="330" height="45" as="geometry"/>
                </mxCell>
                <mxCell id="5" value="" style="whiteSpace=wrap;html=1;" parent="1" vertex="1">
                    <mxGeometry y="90" width="850" height="330" as="geometry"/>
                </mxCell>
                <mxCell id="6" value="" style="whiteSpace=wrap;html=1;" parent="1" vertex="1">
                    <mxGeometry y="420" width="850" height="210" as="geometry"/>
                </mxCell>
                <mxCell id="7" value="" style="whiteSpace=wrap;html=1;" parent="1" vertex="1">
                    <mxGeometry y="420" width="250" height="210" as="geometry"/>
                </mxCell>
                <UserObject label="https://github.com/blayne-04/BlayneFuller-Portfolio" link="https://github.com/blayne-04/BlayneFuller-Portfolio" id="10">
                    <mxCell style="whiteSpace=wrap;html=1;" parent="1" vertex="1">
                        <mxGeometry y="630" width="850" height="440" as="geometry"/>
                    </mxCell>
                </UserObject>
                <mxCell id="9" value="" style="whiteSpace=wrap;html=1;" parent="1" vertex="1">
                    <mxGeometry y="630" width="250" height="440" as="geometry"/>
                </mxCell>
                <mxCell id="11" value="" style="whiteSpace=wrap;html=1;" parent="1" vertex="1">
                    <mxGeometry y="1070" width="850" height="150" as="geometry"/>
                </mxCell>
                <mxCell id="13" value="About&lt;br&gt;Me" style="text;html=1;resizable=0;autosize=1;align=center;verticalAlign=middle;points=[];fillColor=none;strokeColor=none;rounded=0;fontSize=36;" parent="1" vertex="1">
                    <mxGeometry x="60" y="470" width="110" height="90" as="geometry"/>
                </mxCell>
                <mxCell id="14" value="Work" style="text;html=1;resizable=0;autosize=1;align=center;verticalAlign=middle;points=[];fillColor=none;strokeColor=none;rounded=0;fontSize=36;" parent="1" vertex="1">
                    <mxGeometry x="60" y="770" width="100" height="50" as="geometry"/>
                </mxCell>
                <mxCell id="15" value="" style="whiteSpace=wrap;html=1;" parent="1" vertex="1">
                    <mxGeometry x="290" y="650" width="500" height="200" as="geometry"/>
                </mxCell>
                <mxCell id="16" value="" style="whiteSpace=wrap;html=1;" parent="1" vertex="1">
                    <mxGeometry x="290" y="850" width="250" height="100" as="geometry"/>
                </mxCell>
                <mxCell id="17" value="" style="whiteSpace=wrap;html=1;" parent="1" vertex="1">
                    <mxGeometry x="540" y="850" width="250" height="100" as="geometry"/>
                </mxCell>
                <mxCell id="18" value="" style="whiteSpace=wrap;html=1;" parent="1" vertex="1">
                    <mxGeometry x="290" y="950" width="250" height="100" as="geometry"/>
                </mxCell>
                <mxCell id="19" value="" style="whiteSpace=wrap;html=1;" parent="1" vertex="1">
                    <mxGeometry x="540" y="950" width="250" height="100" as="geometry"/>
                </mxCell>
                <mxCell id="21" value="&lt;font style=&quot;font-size: 24px&quot;&gt;Desktop Layout&lt;/font&gt;" style="text;html=1;resizable=0;autosize=1;align=center;verticalAlign=middle;points=[];fillColor=none;strokeColor=none;rounded=0;" parent="1" vertex="1">
                    <mxGeometry x="30" y="35" width="180" height="20" as="geometry"/>
                </mxCell>
                <mxCell id="24" value="" style="whiteSpace=wrap;html=1;" parent="1" vertex="1">
                    <mxGeometry y="1370" width="440" height="90" as="geometry"/>
                </mxCell>
                <mxCell id="26" value="" style="whiteSpace=wrap;html=1;" parent="1" vertex="1">
                    <mxGeometry y="1460" width="440" height="880" as="geometry"/>
                </mxCell>
                <mxCell id="27" value="&lt;font style=&quot;font-size: 24px&quot;&gt;Mobile Layout&lt;/font&gt;" style="text;html=1;resizable=0;autosize=1;align=center;verticalAlign=middle;points=[];fillColor=none;strokeColor=none;rounded=0;" vertex="1" parent="1">
                    <mxGeometry x="60" y="1380" width="160" height="20" as="geometry"/>
                </mxCell>
                <mxCell id="31" value="" style="whiteSpace=wrap;html=1;shadow=1;fontSize=24;" vertex="1" parent="1">
                    <mxGeometry x="30" y="1420" width="60" height="25" as="geometry"/>
                </mxCell>
                <mxCell id="32" value="" style="whiteSpace=wrap;html=1;shadow=1;fontSize=24;" vertex="1" parent="1">
                    <mxGeometry x="90" y="1420" width="60" height="25" as="geometry"/>
                </mxCell>
                <mxCell id="34" value="" style="whiteSpace=wrap;html=1;shadow=1;fontSize=24;" vertex="1" parent="1">
                    <mxGeometry x="150" y="1420" width="60" height="25" as="geometry"/>
                </mxCell>
                <mxCell id="35" value="" style="whiteSpace=wrap;html=1;shadow=1;fontSize=24;" vertex="1" parent="1">
                    <mxGeometry x="210" y="1420" width="60" height="25" as="geometry"/>
                </mxCell>
                <mxCell id="37" value="" style="whiteSpace=wrap;html=1;shadow=1;fontSize=24;" vertex="1" parent="1">
                    <mxGeometry x="130" y="1460" width="310" height="180" as="geometry"/>
                </mxCell>
                <mxCell id="38" value="" style="whiteSpace=wrap;html=1;shadow=1;fontSize=24;" vertex="1" parent="1">
                    <mxGeometry y="1460" width="130" height="180" as="geometry"/>
                </mxCell>
                <mxCell id="36" value="About Me" style="text;html=1;resizable=0;autosize=1;align=center;verticalAlign=middle;points=[];fillColor=none;strokeColor=none;rounded=0;shadow=1;fontSize=24;" vertex="1" parent="1">
                    <mxGeometry x="10" y="1500" width="120" height="30" as="geometry"/>
                </mxCell>
                <mxCell id="41" value="" style="whiteSpace=wrap;html=1;shadow=1;fontSize=24;" vertex="1" parent="1">
                    <mxGeometry y="1640" width="130" height="140" as="geometry"/>
                </mxCell>
                <mxCell id="40" value="Work" style="text;html=1;resizable=0;autosize=1;align=center;verticalAlign=middle;points=[];fillColor=none;strokeColor=none;rounded=0;shadow=1;fontSize=24;" vertex="1" parent="1">
                    <mxGeometry x="20" y="1690" width="70" height="30" as="geometry"/>
                </mxCell>
                <mxCell id="42" value="" style="whiteSpace=wrap;html=1;shadow=1;fontSize=24;" vertex="1" parent="1">
                    <mxGeometry x="130" y="1640" width="310" height="140" as="geometry"/>
                </mxCell>
                <mxCell id="43" value="" style="whiteSpace=wrap;html=1;shadow=1;fontSize=24;" vertex="1" parent="1">
                    <mxGeometry x="130" y="1780" width="310" height="140" as="geometry"/>
                </mxCell>
                <mxCell id="44" value="" style="whiteSpace=wrap;html=1;shadow=1;fontSize=24;" vertex="1" parent="1">
                    <mxGeometry x="130" y="1920" width="310" height="140" as="geometry"/>
                </mxCell>
                <mxCell id="45" value="" style="whiteSpace=wrap;html=1;shadow=1;fontSize=24;" vertex="1" parent="1">
                    <mxGeometry x="130" y="2060" width="310" height="140" as="geometry"/>
                </mxCell>
                <mxCell id="46" value="" style="whiteSpace=wrap;html=1;shadow=1;fontSize=24;" vertex="1" parent="1">
                    <mxGeometry x="130" y="2200" width="310" height="140" as="geometry"/>
                </mxCell>
                <mxCell id="47" value="Contact Me" style="text;html=1;resizable=0;autosize=1;align=center;verticalAlign=middle;points=[];fillColor=none;strokeColor=none;rounded=0;shadow=1;fontSize=24;" vertex="1" parent="1">
                    <mxGeometry x="345" y="1090" width="140" height="30" as="geometry"/>
                </mxCell>
                <mxCell id="48" value="" style="whiteSpace=wrap;html=1;shadow=1;fontSize=24;" vertex="1" parent="1">
                    <mxGeometry x="185" y="1140" width="160" height="50" as="geometry"/>
                </mxCell>
                <mxCell id="51" value="" style="whiteSpace=wrap;html=1;shadow=1;fontSize=24;" vertex="1" parent="1">
                    <mxGeometry x="485" y="1140" width="160" height="50" as="geometry"/>
                </mxCell>
                <mxCell id="52" value="" style="whiteSpace=wrap;html=1;shadow=1;fontSize=24;" vertex="1" parent="1">
                    <mxGeometry y="2340" width="440" height="110" as="geometry"/>
                </mxCell>
                <mxCell id="54" value="Contact Me" style="text;html=1;resizable=0;autosize=1;align=center;verticalAlign=middle;points=[];fillColor=none;strokeColor=none;rounded=0;shadow=1;fontSize=24;" vertex="1" parent="1">
                    <mxGeometry x="150" y="2360" width="140" height="30" as="geometry"/>
                </mxCell>
                <mxCell id="55" value="" style="whiteSpace=wrap;html=1;shadow=1;fontSize=24;" vertex="1" parent="1">
                    <mxGeometry x="50" y="2400" width="120" height="40" as="geometry"/>
                </mxCell>
                <mxCell id="56" value="" style="whiteSpace=wrap;html=1;shadow=1;fontSize=24;" vertex="1" parent="1">
                    <mxGeometry x="260" y="2400" width="120" height="40" as="geometry"/>
                </mxCell>
            </root>
        </mxGraphModel>
    </diagram>
</mxfile>